<?xml version="1.0" encoding="UTF-8"?>
<svg width="1000" height="1000" viewBox="0 0 1000 1000" xmlns="http://www.w3.org/2000/svg">
  <!-- Background Circle -->
  <circle cx="500" cy="500" r="450" fill="#F0F7FF"/>
  
  <!-- Open Book -->
  <g transform="translate(200, 300)">
    <!-- Left Page -->
    <path d="M300,50 C200,20 100,35 50,60 L50,350 C100,325 200,310 300,340 Z" fill="#FFFFFF" stroke="#0A617D" stroke-width="12"/>
    
    <!-- Right Page -->
    <path d="M300,50 C400,20 500,35 550,60 L550,350 C500,325 400,310 300,340 Z" fill="#FFFFFF" stroke="#0A617D" stroke-width="12"/>
    
    <!-- Book Binding -->
    <path d="M300,50 L300,340" stroke="#0A617D" stroke-width="12" fill="none"/>
    
    <!-- Page Lines (Left) -->
    <path d="M100,100 L250,100" stroke="#0A617D" stroke-width="6" stroke-opacity="0.5"/>
    <path d="M100,150 L250,150" stroke="#0A617D" stroke-width="6" stroke-opacity="0.5"/>
    <path d="M100,200 L250,200" stroke="#0A617D" stroke-width="6" stroke-opacity="0.5"/>
    <path d="M100,250 L250,250" stroke="#0A617D" stroke-width="6" stroke-opacity="0.5"/>
    
    <!-- Page Lines (Right) -->
    <path d="M350,100 L500,100" stroke="#0A617D" stroke-width="6" stroke-opacity="0.5"/>
    <path d="M350,150 L500,150" stroke="#0A617D" stroke-width="6" stroke-opacity="0.5"/>
    <path d="M350,200 L500,200" stroke="#0A617D" stroke-width="6" stroke-opacity="0.5"/>
    <path d="M350,250 L500,250" stroke="#0A617D" stroke-width="6" stroke-opacity="0.5"/>
  </g>
  
  <!-- Graduation Cap -->
  <g transform="translate(380, 200)">
    <!-- Cap Base -->
    <rect x="0" y="0" width="240" height="40" fill="#0A617D" rx="5"/>
    
    <!-- Cap Top -->
    <polygon points="120,0 0,60 240,60" fill="#0A617D" transform="translate(0, -60)"/>
    
    <!-- Tassel -->
    <path d="M180,40 C190,60 200,80 190,100" stroke="#0A617D" stroke-width="8" fill="none"/>
    <circle cx="190" cy="110" r="15" fill="#0A617D"/>
  </g>
  
  <!-- Digital Elements -->
  <g transform="translate(250, 550)">
    <!-- Screen/Tablet -->
    <rect x="0" y="0" width="180" height="120" fill="none" stroke="#0A617D" stroke-width="12" rx="10"/>
    
    <!-- Screen Content -->
    <line x1="30" y1="30" x2="150" y2="30" stroke="#0A617D" stroke-width="8" stroke-linecap="round"/>
    <line x1="30" y1="60" x2="100" y2="60" stroke="#0A617D" stroke-width="8" stroke-linecap="round"/>
    <line x1="30" y1="90" x2="120" y2="90" stroke="#0A617D" stroke-width="8" stroke-linecap="round"/>
  </g>
  
  <!-- AI Data Visualization -->
  <g transform="translate(570, 550)">
    <!-- Circle Graph -->
    <circle cx="50" cy="60" r="50" fill="none" stroke="#0A617D" stroke-width="12"/>
    <path d="M50,60 L50,10 A50,50 0 0,1 93,35 z" fill="#0A617D"/>
    
    <!-- Bar Graph -->
    <rect x="120" y="20" width="20" height="80" fill="#0A617D" rx="2"/>
    <rect x="150" y="40" width="20" height="60" fill="#0A617D" rx="2"/>
    <rect x="180" y="10" width="20" height="90" fill="#0A617D" rx="2"/>
  </g>
</svg> 